G04 #@! TF.GenerationSoftware,KiCad,Pcbnew,(5.1.8)-1*
G04 #@! TF.CreationDate,2023-05-29T22:24:53+09:00*
G04 #@! TF.ProjectId,OMTPCTIA,4f4d5450-4354-4494-912e-6b696361645f,rev?*
G04 #@! TF.SameCoordinates,PX9157080PY791ddc0*
G04 #@! TF.FileFunction,Soldermask,Top*
G04 #@! TF.FilePolarity,Negative*
%FSLAX46Y46*%
G04 Gerber Fmt 4.6, Leading zero omitted, Abs format (unit mm)*
G04 Created by KiCad (PCBNEW (5.1.8)-1) date 2023-05-29 22:24:53*
%MOMM*%
%LPD*%
G01*
G04 APERTURE LIST*
%ADD10C,1.100000*%
%ADD11C,1.500000*%
%ADD12R,1.500000X1.500000*%
%ADD13C,2.000000*%
%ADD14O,1.800000X3.600000*%
%ADD15O,4.200000X2.100000*%
%ADD16C,1.700000*%
%ADD17C,3.200000*%
%ADD18C,0.800000*%
G04 APERTURE END LIST*
D10*
X24765000Y4655000D03*
X24765000Y11655000D03*
D11*
X22465000Y9255000D03*
D12*
X27065000Y14455000D03*
D11*
X22465000Y6255000D03*
X22465000Y13255000D03*
D10*
X47625000Y4655000D03*
X47625000Y11655000D03*
D11*
X45325000Y9255000D03*
D12*
X49925000Y14455000D03*
D11*
X45325000Y6255000D03*
X45325000Y13255000D03*
D10*
X36195000Y4655000D03*
X36195000Y11655000D03*
D11*
X33895000Y9255000D03*
D12*
X38495000Y14455000D03*
D11*
X33895000Y6255000D03*
X33895000Y13255000D03*
D10*
X59055000Y4655000D03*
X59055000Y11655000D03*
D11*
X56755000Y9255000D03*
D12*
X61355000Y14455000D03*
D11*
X56755000Y6255000D03*
X56755000Y13255000D03*
D10*
X13335000Y4655000D03*
X13335000Y11655000D03*
D11*
X11035000Y9255000D03*
D12*
X15635000Y14455000D03*
D11*
X11035000Y6255000D03*
X11035000Y13255000D03*
D13*
X31750000Y45085000D03*
X40640000Y45085000D03*
D14*
X36195000Y36995000D03*
D15*
X36195000Y41595000D03*
D13*
X46990000Y45085000D03*
X55880000Y45085000D03*
D14*
X51435000Y37465000D03*
D15*
X51435000Y41595000D03*
D16*
X16510000Y45085000D03*
X25400000Y45085000D03*
D14*
X20955000Y37465000D03*
D15*
X20955000Y41595000D03*
D17*
X69215000Y43815000D03*
X3175000Y43815000D03*
X69215000Y3175000D03*
X3175000Y3175000D03*
D18*
X51435000Y26035000D03*
X36195000Y26035000D03*
X20955000Y26035000D03*
X8255000Y26035000D03*
X64135000Y26035000D03*
X64135000Y18415000D03*
X8255000Y18415000D03*
X8255000Y33655000D03*
X64135000Y33655000D03*
X43815000Y33655000D03*
X28575000Y33655000D03*
X28575000Y18415000D03*
X43815000Y18415000D03*
X20955000Y3175000D03*
X43815000Y3175000D03*
X64135000Y3175000D03*
X8255000Y3175000D03*
M02*
