M48
; DRILL file {KiCad (5.1.8)-1} date 05/29/23 22:24:56
; FORMAT={3:3/ absolute / metric / suppress leading zeros}
; #@! TF.CreationDate,2023-05-29T22:24:56+09:00
; #@! TF.GenerationSoftware,Kicad,Pcbnew,(5.1.8)-1
FMAT,2
METRIC,TZ
T1C0.400
T2C1.000
T3C1.300
T4C1.100
T5C1.700
T6C2.000
T7C3.200
%
G90
G05
T1
X8255Y33655
X8255Y26035
X8255Y18415
X8255Y3175
X20955Y26035
X20955Y3175
X28575Y33655
X28575Y18415
X36195Y26035
X43815Y33655
X43815Y18415
X43815Y3175
X51435Y26035
X64135Y33655
X64135Y26035
X64135Y18415
X64135Y3175
T2
X56755Y13255
X56755Y9255
X56755Y6255
X61355Y14455
X22465Y13255
X22465Y9255
X22465Y6255
X27065Y14455
X45325Y13255
X45325Y9255
X45325Y6255
X49925Y14455
X33895Y13255
X33895Y9255
X33895Y6255
X38495Y14455
X11035Y13255
X11035Y9255
X11035Y6255
X15635Y14455
T4
X59055Y11655
X59055Y4655
X24765Y11655
X24765Y4655
X47625Y11655
X47625Y4655
X36195Y11655
X36195Y4655
X13335Y11655
X13335Y4655
T5
X16510Y45085
X25400Y45085
T6
X31750Y45085
X40640Y45085
X46990Y45085
X55880Y45085
T7
X69215Y43815
X3175Y3175
X3175Y43815
X69215Y3175
T2
G00X36195Y36245
M15
G01X36195Y37745
M16
G05
G00X51435Y36715
M15
G01X51435Y38215
M16
G05
G00X20955Y36715
M15
G01X20955Y38215
M16
G05
T3
G00X52035Y41595
M15
G01X50835Y41595
M16
G05
G00X21555Y41595
M15
G01X20355Y41595
M16
G05
G00X36795Y41595
M15
G01X35595Y41595
M16
G05
T0
M30
